<?xml version="1.0" encoding="UTF-8"?>
<svg xmlns="http://www.w3.org/2000/svg" xmlns:xlink="http://www.w3.org/1999/xlink" width="154.48" height="137.03" viewBox="0 0 154.48 137.03">
<defs>
<g>
<g id="glyph-0-0">
<path d="M 2.015625 0.84375 C 2.3125 0.65625 2.765625 0.515625 5.359375 -0.21875 C 5.265625 -0.5 5.171875 -1.03125 5.125 -1.375 L 3.34375 -0.90625 L 3.34375 -2.1875 C 3.703125 -2.46875 4.046875 -2.765625 4.34375 -3.0625 C 5.015625 -1.234375 6.046875 0.046875 7.90625 0.6875 C 8.09375 0.34375 8.46875 -0.1875 8.75 -0.453125 C 8 -0.65625 7.375 -0.984375 6.859375 -1.421875 C 7.359375 -1.671875 7.90625 -2.015625 8.40625 -2.34375 L 7.3125 -3.15625 C 7 -2.859375 6.5625 -2.515625 6.125 -2.21875 C 5.890625 -2.515625 5.71875 -2.859375 5.5625 -3.21875 L 8.4375 -3.21875 L 8.4375 -4.3125 L 5.078125 -4.3125 L 5.078125 -4.640625 L 7.796875 -4.640625 L 7.796875 -5.65625 L 5.078125 -5.65625 L 5.078125 -5.96875 L 8.109375 -5.96875 L 8.109375 -7.046875 L 5.078125 -7.046875 L 5.078125 -7.609375 L 3.78125 -7.609375 L 3.78125 -7.046875 L 0.859375 -7.046875 L 0.859375 -5.96875 L 3.78125 -5.96875 L 3.78125 -5.65625 L 1.296875 -5.65625 L 1.296875 -4.640625 L 3.78125 -4.640625 L 3.78125 -4.3125 L 0.453125 -4.3125 L 0.453125 -3.21875 L 2.734375 -3.21875 C 2 -2.6875 1.046875 -2.21875 0.109375 -1.9375 C 0.390625 -1.671875 0.765625 -1.1875 0.953125 -0.890625 C 1.296875 -1.015625 1.640625 -1.171875 1.984375 -1.34375 L 1.984375 -1.078125 C 1.984375 -0.671875 1.703125 -0.421875 1.484375 -0.296875 C 1.6875 -0.03125 1.9375 0.53125 2.015625 0.84375 Z M 2.015625 0.84375 "/>
</g>
<g id="glyph-0-1">
<path d="M 1.578125 -3.140625 C 1.28125 -2.25 0.734375 -1.3125 0.140625 -0.75 C 0.46875 -0.59375 1.0625 -0.21875 1.34375 0.015625 C 1.921875 -0.65625 2.5625 -1.734375 2.953125 -2.78125 Z M 5.90625 -2.6875 C 6.453125 -1.8125 7.015625 -0.671875 7.203125 0.046875 L 8.546875 -0.53125 C 8.3125 -1.296875 7.6875 -2.375 7.140625 -3.203125 Z M 1.28125 -7.09375 L 1.28125 -5.8125 L 7.609375 -5.8125 L 7.609375 -7.09375 Z M 0.453125 -4.953125 L 0.453125 -3.65625 L 3.78125 -3.65625 L 3.78125 -0.65625 C 3.78125 -0.53125 3.71875 -0.5 3.546875 -0.5 C 3.390625 -0.484375 2.71875 -0.5 2.265625 -0.53125 C 2.453125 -0.140625 2.65625 0.453125 2.71875 0.859375 C 3.5 0.859375 4.125 0.828125 4.59375 0.625 C 5.0625 0.421875 5.203125 0.0625 5.203125 -0.625 L 5.203125 -3.65625 L 8.484375 -3.65625 L 8.484375 -4.953125 Z M 0.453125 -4.953125 "/>
</g>
<g id="glyph-0-2">
<path d="M 2.78125 -4.09375 L 2.78125 -2.984375 L 7.84375 -2.984375 L 7.84375 -4.09375 Z M 0.921875 -7.265625 L 0.921875 -4.609375 C 0.921875 -3.21875 0.859375 -1.1875 0.140625 0.171875 C 0.46875 0.28125 1.046875 0.609375 1.3125 0.8125 C 2.078125 -0.640625 2.21875 -2.953125 2.234375 -4.53125 L 8.109375 -4.53125 L 8.109375 -7.265625 Z M 2.234375 -6.1875 L 6.796875 -6.1875 L 6.796875 -5.609375 L 2.234375 -5.609375 Z M 2.890625 0.875 C 3.265625 0.734375 3.78125 0.6875 6.84375 0.421875 C 6.953125 0.609375 7.03125 0.796875 7.09375 0.953125 L 8.3125 0.40625 C 8.09375 -0.078125 7.640625 -0.8125 7.28125 -1.390625 L 8.4375 -1.390625 L 8.4375 -2.515625 L 2.34375 -2.515625 L 2.34375 -1.390625 L 3.375 -1.390625 C 3.1875 -1.015625 2.984375 -0.71875 2.890625 -0.59375 C 2.75 -0.40625 2.59375 -0.28125 2.421875 -0.234375 C 2.578125 0.078125 2.8125 0.640625 2.890625 0.875 Z M 6.03125 -1.078125 L 6.3125 -0.578125 L 4.25 -0.453125 C 4.484375 -0.734375 4.71875 -1.0625 4.921875 -1.390625 L 6.828125 -1.390625 Z M 6.03125 -1.078125 "/>
</g>
<g id="glyph-0-3">
<path d="M 5.75 -3.390625 C 5.75 -1.390625 6.59375 0.046875 7.484375 0.921875 L 8.515625 0.484375 C 7.6875 -0.421875 6.953125 -1.609375 6.953125 -3.390625 C 6.953125 -5.15625 7.6875 -6.34375 8.515625 -7.25 L 7.484375 -7.6875 C 6.59375 -6.8125 5.75 -5.375 5.75 -3.390625 Z M 5.75 -3.390625 "/>
</g>
<g id="glyph-0-4">
<path d="M 1.203125 -7.03125 L 1.203125 -3.859375 C 1.203125 -2.59375 1.125 -1 0.15625 0.0625 C 0.453125 0.21875 0.984375 0.65625 1.1875 0.90625 C 1.8125 0.234375 2.140625 -0.71875 2.3125 -1.6875 L 3.921875 -1.6875 L 3.921875 0.71875 L 5.234375 0.71875 L 5.234375 -1.6875 L 6.8125 -1.6875 L 6.8125 -0.625 C 6.8125 -0.46875 6.75 -0.421875 6.59375 -0.421875 C 6.4375 -0.421875 5.84375 -0.40625 5.421875 -0.453125 C 5.578125 -0.109375 5.78125 0.453125 5.828125 0.796875 C 6.625 0.796875 7.171875 0.78125 7.578125 0.5625 C 7.96875 0.375 8.109375 0.03125 8.109375 -0.609375 L 8.109375 -7.03125 Z M 2.484375 -5.8125 L 3.921875 -5.8125 L 3.921875 -5 L 2.484375 -5 Z M 6.8125 -5.8125 L 6.8125 -5 L 5.234375 -5 L 5.234375 -5.8125 Z M 2.484375 -3.796875 L 3.921875 -3.796875 L 3.921875 -2.90625 L 2.453125 -2.90625 C 2.46875 -3.21875 2.484375 -3.515625 2.484375 -3.796875 Z M 6.8125 -3.796875 L 6.8125 -2.90625 L 5.234375 -2.90625 L 5.234375 -3.796875 Z M 6.8125 -3.796875 "/>
</g>
<g id="glyph-0-5">
<path d="M 2.515625 -5.09375 L 6.5 -5.09375 L 6.5 -3.90625 L 2.515625 -3.90625 Z M 3.625 -7.34375 C 3.765625 -7.03125 3.921875 -6.625 4.015625 -6.296875 L 1.15625 -6.296875 L 1.15625 -4.21875 C 1.15625 -2.953125 1.09375 -1.109375 0.1875 0.140625 C 0.5 0.28125 1.09375 0.6875 1.34375 0.921875 C 2.046875 -0.03125 2.34375 -1.4375 2.453125 -2.703125 L 6.5 -2.703125 L 6.5 -2.3125 L 7.828125 -2.3125 L 7.828125 -6.296875 L 4.828125 -6.296875 L 5.421875 -6.46875 C 5.3125 -6.796875 5.109375 -7.296875 4.921875 -7.671875 Z M 3.625 -7.34375 "/>
</g>
<g id="glyph-0-6">
<path d="M 2.515625 -4.859375 L 3.796875 -4.859375 L 3.796875 -4.40625 L 2.515625 -4.40625 Z M 5.109375 -4.859375 L 6.40625 -4.859375 L 6.40625 -4.40625 L 5.109375 -4.40625 Z M 2.515625 -6.265625 L 3.796875 -6.265625 L 3.796875 -5.8125 L 2.515625 -5.8125 Z M 5.109375 -6.265625 L 6.40625 -6.265625 L 6.40625 -5.8125 L 5.109375 -5.8125 Z M 5.171875 -2.359375 L 5.171875 0.8125 L 6.53125 0.8125 L 6.53125 -1.875 C 6.9375 -1.625 7.390625 -1.40625 7.859375 -1.25 C 8.046875 -1.578125 8.4375 -2.09375 8.734375 -2.34375 C 7.875 -2.5625 7.09375 -2.90625 6.5 -3.359375 L 7.75 -3.359375 L 7.75 -7.296875 L 1.234375 -7.296875 L 1.234375 -3.359375 L 2.421875 -3.359375 C 1.828125 -2.90625 1.046875 -2.515625 0.234375 -2.28125 C 0.5 -2.015625 0.90625 -1.53125 1.09375 -1.21875 C 1.59375 -1.40625 2.078125 -1.640625 2.53125 -1.953125 L 2.53125 -1.796875 C 2.53125 -1.265625 2.328125 -0.5625 0.890625 -0.15625 C 1.171875 0.09375 1.609375 0.59375 1.765625 0.90625 C 3.59375 0.28125 3.859375 -0.875 3.859375 -1.734375 L 3.859375 -2.390625 L 3.125 -2.390625 C 3.46875 -2.6875 3.78125 -3.015625 4.0625 -3.359375 L 4.921875 -3.359375 C 5.1875 -3 5.515625 -2.65625 5.875 -2.359375 Z M 5.171875 -2.359375 "/>
</g>
<g id="glyph-0-7">
<path d="M 3.84375 -2.703125 L 4.921875 -2.703125 L 4.921875 -2.234375 L 3.84375 -2.234375 Z M 3.84375 -3.703125 L 3.84375 -4.125 L 4.921875 -4.125 L 4.921875 -3.703125 Z M 3.84375 -1.234375 L 4.921875 -1.234375 L 4.921875 -0.78125 L 3.84375 -0.78125 Z M 0.40625 -7.15625 L 0.40625 -5.9375 L 3.578125 -5.9375 L 3.484375 -5.3125 L 0.75 -5.3125 L 0.75 0.84375 L 2 0.84375 L 2 0.40625 L 6.828125 0.40625 L 6.828125 0.84375 L 8.15625 0.84375 L 8.15625 -5.3125 L 4.859375 -5.3125 L 5.046875 -5.9375 L 8.546875 -5.9375 L 8.546875 -7.15625 Z M 2 -0.78125 L 2 -4.125 L 2.703125 -4.125 L 2.703125 -0.78125 Z M 6.828125 -0.78125 L 6.078125 -0.78125 L 6.078125 -4.125 L 6.828125 -4.125 Z M 6.828125 -0.78125 "/>
</g>
<g id="glyph-0-8">
<path d="M 3.15625 -3.390625 C 3.15625 -5.375 2.3125 -6.8125 1.421875 -7.6875 L 0.390625 -7.25 C 1.21875 -6.34375 1.953125 -5.15625 1.953125 -3.390625 C 1.953125 -1.609375 1.21875 -0.421875 0.390625 0.484375 L 1.421875 0.921875 C 2.3125 0.046875 3.15625 -1.390625 3.15625 -3.390625 Z M 3.15625 -3.390625 "/>
</g>
<g id="glyph-0-9">
<path d="M 0.484375 -5.484375 C 0.84375 -4.34375 1.296875 -2.84375 1.46875 -1.9375 L 2.625 -2.34375 L 2.625 -0.84375 L 0.40625 -0.84375 L 0.40625 0.453125 L 8.515625 0.453125 L 8.515625 -0.84375 L 6.28125 -0.84375 L 6.28125 -2.328125 L 7.125 -1.890625 C 7.578125 -2.78125 8.109375 -4.0625 8.5 -5.25 L 7.328125 -5.8125 C 7.078125 -4.859375 6.671875 -3.765625 6.28125 -2.9375 L 6.28125 -7.515625 L 4.953125 -7.515625 L 4.953125 -0.84375 L 3.953125 -0.84375 L 3.953125 -7.5 L 2.625 -7.5 L 2.625 -2.9375 C 2.375 -3.8125 1.984375 -4.9375 1.671875 -5.828125 Z M 0.484375 -5.484375 "/>
</g>
<g id="glyph-0-10">
<path d="M 3.578125 -3.34375 C 3.546875 -3.109375 3.5 -2.875 3.4375 -2.65625 L 1 -2.65625 L 1 -1.5625 L 2.90625 -1.5625 C 2.390625 -0.890625 1.578125 -0.46875 0.421875 -0.21875 C 0.671875 0.015625 1.0625 0.5625 1.1875 0.84375 C 2.71875 0.390625 3.75 -0.34375 4.375 -1.5625 L 6.59375 -1.5625 C 6.453125 -0.90625 6.3125 -0.53125 6.140625 -0.40625 C 6.015625 -0.328125 5.875 -0.3125 5.6875 -0.3125 C 5.390625 -0.3125 4.71875 -0.328125 4.109375 -0.375 C 4.328125 -0.078125 4.5 0.40625 4.515625 0.734375 C 5.125 0.75 5.734375 0.75 6.09375 0.734375 C 6.5625 0.703125 6.875 0.625 7.171875 0.359375 C 7.53125 0.046875 7.75 -0.6875 7.953125 -2.171875 C 7.984375 -2.328125 8.015625 -2.65625 8.015625 -2.65625 L 4.796875 -2.65625 C 4.84375 -2.84375 4.890625 -3.03125 4.921875 -3.234375 Z M 6.03125 -5.734375 C 5.5625 -5.421875 5.015625 -5.171875 4.390625 -4.9375 C 3.84375 -5.140625 3.390625 -5.40625 3.046875 -5.734375 Z M 3.09375 -7.625 C 2.65625 -6.875 1.84375 -6.125 0.5625 -5.609375 C 0.8125 -5.390625 1.171875 -4.90625 1.3125 -4.59375 C 1.625 -4.75 1.921875 -4.921875 2.1875 -5.09375 C 2.40625 -4.890625 2.65625 -4.703125 2.90625 -4.53125 C 2.109375 -4.359375 1.234375 -4.234375 0.359375 -4.171875 C 0.5625 -3.890625 0.78125 -3.359375 0.859375 -3.046875 C 2.109375 -3.1875 3.328125 -3.421875 4.421875 -3.796875 C 5.4375 -3.421875 6.640625 -3.234375 8 -3.140625 C 8.15625 -3.46875 8.453125 -4 8.703125 -4.28125 C 7.78125 -4.3125 6.890625 -4.375 6.109375 -4.515625 C 6.984375 -4.984375 7.71875 -5.59375 8.21875 -6.34375 L 7.421875 -6.859375 L 7.21875 -6.796875 L 4.046875 -6.796875 C 4.171875 -6.984375 4.296875 -7.171875 4.40625 -7.359375 Z M 3.09375 -7.625 "/>
</g>
<g id="glyph-0-11">
<path d="M 0.484375 -6.84375 C 0.921875 -6.34375 1.484375 -5.6875 1.703125 -5.25 L 2.75 -6.015625 C 2.46875 -6.453125 1.875 -7.078125 1.453125 -7.53125 Z M 6.671875 -6.4375 L 7.203125 -6.4375 L 7.203125 -5.8125 L 6.671875 -5.8125 Z M 5.359375 -6.4375 L 5.875 -6.4375 L 5.875 -5.8125 L 5.359375 -5.8125 Z M 4.0625 -6.4375 L 4.546875 -6.4375 L 4.546875 -5.8125 L 4.0625 -5.8125 Z M 4 -2.4375 C 4.171875 -2.28125 4.375 -2.109375 4.5625 -1.9375 C 4.09375 -1.71875 3.5625 -1.5625 3.015625 -1.4375 C 3.203125 -1.234375 3.421875 -0.875 3.578125 -0.609375 C 3.296875 -0.671875 3.03125 -0.75 2.828125 -0.875 L 2.484375 -1.078125 L 2.484375 -4.6875 L 0.328125 -4.6875 L 0.328125 -3.515625 L 1.25 -3.515625 L 1.25 -1.296875 C 0.875 -1.140625 0.421875 -0.8125 0.03125 -0.359375 L 0.921875 0.921875 C 1.15625 0.4375 1.46875 -0.21875 1.703125 -0.21875 C 1.890625 -0.21875 2.234375 0.078125 2.65625 0.296875 C 3.328125 0.65625 4.09375 0.75 5.28125 0.75 C 6.265625 0.75 7.703125 0.6875 8.375 0.65625 C 8.390625 0.296875 8.609375 -0.359375 8.75 -0.71875 C 7.8125 -0.5625 6.265625 -0.46875 5.34375 -0.46875 C 4.859375 -0.46875 4.390625 -0.484375 3.984375 -0.53125 C 5.875 -1.09375 7.421875 -2.09375 8.15625 -3.921875 L 7.328125 -4.3125 L 7.109375 -4.265625 L 5.46875 -4.265625 C 5.5625 -4.40625 5.640625 -4.546875 5.71875 -4.6875 L 5.3125 -4.8125 L 8.328125 -4.8125 L 8.328125 -7.4375 L 2.96875 -7.4375 L 2.96875 -4.8125 L 4.4375 -4.8125 C 4.015625 -4.125 3.3125 -3.515625 2.5625 -3.140625 C 2.8125 -2.9375 3.234375 -2.484375 3.421875 -2.25 C 3.859375 -2.515625 4.296875 -2.875 4.671875 -3.28125 L 6.40625 -3.28125 C 6.1875 -3.015625 5.9375 -2.765625 5.640625 -2.546875 C 5.40625 -2.75 5.109375 -2.984375 4.875 -3.15625 Z M 4 -2.4375 "/>
</g>
<g id="glyph-0-12">
<path d="M 5.21875 -6.46875 L 6.796875 -6.46875 L 6.796875 -6.125 L 5.21875 -6.125 Z M 4.046875 -7.359375 L 4.046875 -5.234375 L 8.0625 -5.234375 L 8.0625 -7.359375 Z M 0.609375 -2.65625 C 0.6875 -2.75 1.046875 -2.796875 1.3125 -2.796875 L 1.96875 -2.796875 L 1.96875 -1.953125 C 1.296875 -1.859375 0.671875 -1.796875 0.1875 -1.734375 L 0.4375 -0.5 L 1.96875 -0.75 L 1.96875 0.828125 L 3.140625 0.828125 L 3.140625 -0.96875 L 3.71875 -1.078125 L 3.65625 -2.1875 L 3.140625 -2.109375 L 3.140625 -2.796875 L 3.546875 -2.796875 L 3.546875 -3.953125 L 3.140625 -3.953125 L 3.140625 -5.140625 L 2.109375 -5.140625 L 2.21875 -5.484375 L 3.703125 -5.484375 L 3.703125 -6.703125 L 2.5625 -6.703125 L 2.71875 -7.40625 L 1.484375 -7.625 C 1.4375 -7.328125 1.390625 -7 1.328125 -6.703125 L 0.296875 -6.703125 L 0.296875 -5.484375 L 1.046875 -5.484375 C 0.90625 -4.984375 0.78125 -4.59375 0.71875 -4.421875 C 0.546875 -4.03125 0.421875 -3.796875 0.21875 -3.734375 C 0.359375 -3.4375 0.546875 -2.875 0.609375 -2.65625 Z M 1.96875 -4.75 L 1.96875 -3.953125 L 1.65625 -3.953125 C 1.765625 -4.203125 1.875 -4.484375 1.96875 -4.75 Z M 6.765625 -3.921875 L 6.765625 -3.578125 L 5.25 -3.578125 L 5.25 -3.921875 Z M 3.5 -0.984375 L 3.6875 0.140625 L 6.765625 -0.125 L 6.765625 0.84375 L 7.953125 0.84375 L 7.953125 -0.234375 L 8.625 -0.296875 L 8.625 -1.359375 L 7.953125 -1.296875 L 7.953125 -3.921875 L 8.53125 -3.921875 L 8.53125 -4.953125 L 3.640625 -4.953125 L 3.640625 -3.921875 L 4.0625 -3.921875 L 4.0625 -1.015625 Z M 6.765625 -2.703125 L 6.765625 -2.390625 L 5.25 -2.390625 L 5.25 -2.703125 Z M 6.765625 -1.5 L 6.765625 -1.203125 L 5.25 -1.09375 L 5.25 -1.5 Z M 6.765625 -1.5 "/>
</g>
<g id="glyph-0-13">
<path d="M 3.140625 -2.015625 C 3.015625 -1.78125 2.84375 -1.578125 2.65625 -1.375 L 2.09375 -1.671875 L 2.28125 -2.015625 Z M 0.5625 -1.28125 C 0.9375 -1.125 1.359375 -0.921875 1.765625 -0.703125 C 1.296875 -0.4375 0.75 -0.234375 0.15625 -0.109375 C 0.359375 0.109375 0.609375 0.5625 0.734375 0.859375 C 1.515625 0.640625 2.21875 0.328125 2.8125 -0.09375 C 3.03125 0.046875 3.25 0.203125 3.421875 0.34375 L 4.171875 -0.484375 L 3.609375 -0.84375 C 4.0625 -1.375 4.40625 -2.03125 4.625 -2.828125 L 3.921875 -3.078125 L 3.734375 -3.046875 L 2.78125 -3.046875 L 2.90625 -3.328125 L 1.765625 -3.53125 L 1.5625 -3.046875 L 0.484375 -3.046875 L 0.484375 -2.015625 L 1.03125 -2.015625 C 0.875 -1.75 0.71875 -1.5 0.5625 -1.28125 Z M 0.5 -7.125 C 0.6875 -6.796875 0.859375 -6.390625 0.9375 -6.078125 L 0.34375 -6.078125 L 0.34375 -5.078125 L 1.453125 -5.078125 C 1.0625 -4.734375 0.5625 -4.421875 0.109375 -4.234375 C 0.34375 -4.015625 0.625 -3.578125 0.765625 -3.296875 C 1.15625 -3.53125 1.578125 -3.84375 1.953125 -4.1875 L 1.953125 -3.53125 L 3.140625 -3.53125 L 3.140625 -4.34375 C 3.40625 -4.109375 3.671875 -3.890625 3.84375 -3.71875 L 4.53125 -4.59375 C 4.390625 -4.6875 4.046875 -4.890625 3.703125 -5.078125 L 4.765625 -5.078125 L 4.765625 -6.078125 L 3.953125 -6.078125 C 4.171875 -6.34375 4.453125 -6.734375 4.765625 -7.125 L 3.671875 -7.546875 C 3.546875 -7.21875 3.328125 -6.765625 3.140625 -6.453125 L 3.140625 -7.625 L 1.953125 -7.625 L 1.953125 -6.078125 L 1.15625 -6.078125 L 1.9375 -6.421875 C 1.859375 -6.734375 1.640625 -7.171875 1.421875 -7.515625 Z M 3.953125 -6.078125 L 3.140625 -6.078125 L 3.140625 -6.4375 Z M 5.375 -7.625 C 5.1875 -6 4.796875 -4.46875 4.0625 -3.53125 C 4.3125 -3.359375 4.796875 -2.9375 4.984375 -2.71875 C 5.109375 -2.90625 5.25 -3.109375 5.359375 -3.328125 C 5.515625 -2.765625 5.703125 -2.21875 5.921875 -1.734375 C 5.484375 -1.046875 4.84375 -0.53125 3.984375 -0.15625 C 4.1875 0.09375 4.53125 0.625 4.640625 0.90625 C 5.4375 0.5 6.0625 0.015625 6.5625 -0.609375 C 6.9375 -0.046875 7.40625 0.40625 7.96875 0.765625 C 8.15625 0.453125 8.515625 -0.015625 8.796875 -0.25 C 8.171875 -0.609375 7.65625 -1.109375 7.265625 -1.75 C 7.65625 -2.59375 7.90625 -3.625 8.046875 -4.828125 L 8.59375 -4.828125 L 8.59375 -6.015625 L 6.296875 -6.015625 C 6.390625 -6.484375 6.46875 -6.96875 6.546875 -7.453125 Z M 6.859375 -4.828125 C 6.796875 -4.234375 6.703125 -3.6875 6.5625 -3.203125 C 6.390625 -3.71875 6.25 -4.25 6.140625 -4.828125 Z M 6.859375 -4.828125 "/>
</g>
<g id="glyph-0-14">
<path d="M 3.328125 -7.28125 L 3.328125 -4.53125 C 3.328125 -3.140625 3.265625 -1.171875 2.390625 0.125 C 2.6875 0.265625 3.21875 0.65625 3.453125 0.875 C 3.890625 0.234375 4.15625 -0.609375 4.328125 -1.46875 L 4.328125 0.84375 L 5.4375 0.84375 L 5.4375 0.640625 L 7.265625 0.640625 L 7.265625 0.84375 L 8.421875 0.84375 L 8.421875 -2.0625 L 6.875 -2.0625 L 6.875 -2.765625 L 8.578125 -2.765625 L 8.578125 -3.84375 L 6.875 -3.84375 L 6.875 -4.53125 L 8.359375 -4.53125 L 8.359375 -7.28125 Z M 4.59375 -6.1875 L 7.140625 -6.1875 L 7.140625 -5.625 L 4.59375 -5.625 Z M 4.59375 -4.53125 L 5.671875 -4.53125 L 5.671875 -3.84375 L 4.578125 -3.84375 Z M 4.5 -2.765625 L 5.671875 -2.765625 L 5.671875 -2.0625 L 4.421875 -2.0625 Z M 5.4375 -0.375 L 5.4375 -1 L 7.265625 -1 L 7.265625 -0.375 Z M 1.140625 -7.609375 L 1.140625 -5.984375 L 0.296875 -5.984375 L 0.296875 -4.796875 L 1.140625 -4.796875 L 1.140625 -3.421875 L 0.15625 -3.21875 L 0.421875 -1.984375 L 1.140625 -2.171875 L 1.140625 -0.640625 C 1.140625 -0.53125 1.109375 -0.484375 1 -0.484375 C 0.890625 -0.484375 0.59375 -0.484375 0.3125 -0.5 C 0.46875 -0.15625 0.609375 0.375 0.625 0.6875 C 1.21875 0.6875 1.625 0.65625 1.9375 0.453125 C 2.234375 0.25 2.3125 -0.078125 2.3125 -0.625 L 2.3125 -2.484375 L 3.171875 -2.71875 L 3.015625 -3.890625 L 2.3125 -3.703125 L 2.3125 -4.796875 L 3.15625 -4.796875 L 3.15625 -5.984375 L 2.3125 -5.984375 L 2.3125 -7.609375 Z M 1.140625 -7.609375 "/>
</g>
<g id="glyph-0-15">
<path d="M 0.65625 -6.796875 C 1.078125 -6.328125 1.703125 -5.671875 2 -5.265625 L 2.953125 -6.15625 C 2.640625 -6.53125 1.984375 -7.15625 1.5625 -7.59375 Z M 5.046875 -7.359375 C 5.171875 -6.96875 5.3125 -6.484375 5.390625 -6.125 L 3.25 -6.125 L 3.25 -4.859375 L 4.34375 -4.859375 C 4.3125 -2.859375 4.234375 -1.171875 3.03125 -0.046875 C 3.34375 0.15625 3.734375 0.578125 3.921875 0.890625 C 4.953125 -0.078125 5.359375 -1.390625 5.53125 -2.921875 L 6.828125 -2.921875 C 6.765625 -1.375 6.65625 -0.703125 6.515625 -0.53125 C 6.40625 -0.421875 6.328125 -0.40625 6.1875 -0.40625 C 6 -0.40625 5.65625 -0.40625 5.28125 -0.453125 C 5.484375 -0.109375 5.640625 0.421875 5.65625 0.78125 C 6.125 0.796875 6.546875 0.796875 6.828125 0.734375 C 7.15625 0.6875 7.390625 0.59375 7.625 0.28125 C 7.921875 -0.078125 8.03125 -1.109375 8.125 -3.609375 C 8.140625 -3.765625 8.15625 -4.125 8.15625 -4.125 L 5.625 -4.125 L 5.640625 -4.859375 L 8.671875 -4.859375 L 8.671875 -6.125 L 5.9375 -6.125 L 6.734375 -6.375 C 6.65625 -6.71875 6.453125 -7.296875 6.28125 -7.703125 Z M 0.296875 -4.9375 L 0.296875 -3.703125 L 1.421875 -3.703125 L 1.421875 -1.453125 C 1.421875 -1 1.03125 -0.546875 0.75 -0.359375 C 0.984375 -0.140625 1.421875 0.390625 1.546875 0.671875 C 1.71875 0.390625 2.046875 0.046875 3.921875 -1.453125 C 3.796875 -1.703125 3.640625 -2.1875 3.546875 -2.515625 L 2.71875 -1.875 L 2.71875 -4.9375 Z M 0.296875 -4.9375 "/>
</g>
<g id="glyph-0-16">
<path d="M 0.5625 -5.390625 L 0.5625 0.828125 L 1.859375 0.828125 L 1.859375 -5.390625 Z M 0.609375 -6.96875 C 1.046875 -6.46875 1.671875 -5.78125 1.9375 -5.359375 L 2.9375 -6.078125 C 2.625 -6.46875 1.984375 -7.140625 1.546875 -7.59375 Z M 3.03125 -7.203125 L 3.03125 -6.015625 L 7.046875 -6.015625 L 7.046875 -0.65625 C 7.046875 -0.484375 7 -0.421875 6.84375 -0.421875 C 6.6875 -0.421875 6.125 -0.421875 5.71875 -0.46875 C 5.875 -0.125 6.0625 0.453125 6.109375 0.8125 C 6.890625 0.8125 7.421875 0.78125 7.8125 0.59375 C 8.21875 0.375 8.34375 0.046875 8.34375 -0.625 L 8.34375 -7.203125 Z M 2.671875 -4.84375 L 2.671875 -0.921875 L 3.828125 -0.921875 L 3.828125 -1.375 L 6.15625 -1.375 L 6.15625 -4.84375 Z M 3.828125 -3.703125 L 4.90625 -3.703125 L 4.90625 -2.53125 L 3.828125 -2.53125 Z M 3.828125 -3.703125 "/>
</g>
<g id="glyph-0-17">
<path d="M 4.0625 -7.40625 C 4.140625 -7.234375 4.21875 -7.015625 4.265625 -6.8125 L 0.9375 -6.8125 L 0.9375 -4.34375 C 0.9375 -3.015625 0.875 -1.125 0.140625 0.140625 C 0.4375 0.265625 1 0.65625 1.234375 0.875 C 2.078125 -0.53125 2.234375 -2.84375 2.234375 -4.34375 L 2.234375 -5.609375 L 3.953125 -5.609375 C 3.890625 -5.40625 3.828125 -5.203125 3.734375 -5 L 2.40625 -5 L 2.40625 -3.859375 L 3.21875 -3.859375 C 3.125 -3.671875 3.046875 -3.53125 3 -3.46875 C 2.8125 -3.171875 2.65625 -3.015625 2.453125 -2.953125 C 2.59375 -2.609375 2.8125 -1.984375 2.890625 -1.734375 C 2.96875 -1.8125 3.40625 -1.875 3.8125 -1.875 L 5.015625 -1.875 L 5.015625 -1.328125 L 2.203125 -1.328125 L 2.203125 -0.15625 L 5.015625 -0.15625 L 5.015625 0.84375 L 6.3125 0.84375 L 6.3125 -0.15625 L 8.546875 -0.15625 L 8.546875 -1.328125 L 6.3125 -1.328125 L 6.3125 -1.875 L 7.9375 -1.875 L 7.953125 -3.015625 L 6.3125 -3.015625 L 6.3125 -3.65625 L 5.015625 -3.65625 L 5.015625 -3.015625 L 4.09375 -3.015625 C 4.28125 -3.28125 4.453125 -3.5625 4.625 -3.859375 L 8.3125 -3.859375 L 8.3125 -5 L 5.203125 -5 L 5.375 -5.375 L 4.59375 -5.609375 L 8.578125 -5.609375 L 8.578125 -6.8125 L 5.703125 -6.8125 C 5.625 -7.09375 5.515625 -7.421875 5.375 -7.671875 Z M 4.0625 -7.40625 "/>
</g>
</g>
<clipPath id="clip-0">
<path clip-rule="nonzero" d="M 0.285156 0 L 153.679688 0 L 153.679688 38 L 0.285156 38 Z M 0.285156 0 "/>
</clipPath>
<clipPath id="clip-1">
<path clip-rule="nonzero" d="M 0.285156 29 L 153.679688 29 L 153.679688 72 L 0.285156 72 Z M 0.285156 29 "/>
</clipPath>
<clipPath id="clip-2">
<path clip-rule="nonzero" d="M 0.285156 64 L 153.679688 64 L 153.679688 107 L 0.285156 107 Z M 0.285156 64 "/>
</clipPath>
<clipPath id="clip-3">
<path clip-rule="nonzero" d="M 0.285156 98 L 153.679688 98 L 153.679688 136.066406 L 0.285156 136.066406 Z M 0.285156 98 "/>
</clipPath>
</defs>
<path fill-rule="nonzero" fill="rgb(89.019775%, 94.900513%, 99.215698%)" fill-opacity="1" d="M 145.375 6.328125 L 8.59375 6.328125 C 7.5 6.328125 6.613281 7.214844 6.613281 8.304688 L 6.613281 24.050781 C 6.613281 25.144531 7.5 26.03125 8.59375 26.03125 L 145.375 26.03125 C 146.46875 26.03125 147.351562 25.144531 147.351562 24.050781 L 147.351562 8.304688 C 147.351562 7.214844 146.46875 6.328125 145.375 6.328125 Z M 145.375 6.328125 "/>
<g clip-path="url(#clip-0)">
<path fill="none" stroke-width="0.79701" stroke-linecap="butt" stroke-linejoin="miter" stroke="rgb(8.233643%, 39.608765%, 75.292969%)" stroke-opacity="1" stroke-miterlimit="10" d="M 68.87531 9.92108 L -68.874179 9.92108 C -69.975671 9.92108 -70.868667 9.028084 -70.868667 7.930526 L -70.868667 -7.927031 C -70.868667 -9.028523 -69.975671 -9.921518 -68.874179 -9.921518 L 68.87531 -9.921518 C 69.976802 -9.921518 70.865864 -9.028523 70.865864 -7.927031 L 70.865864 7.930526 C 70.865864 9.028084 69.976802 9.92108 68.87531 9.92108 Z M 68.87531 9.92108 " transform="matrix(0.992971, 0, 0, -0.992971, 76.983813, 16.17947)"/>
</g>
<g fill="rgb(5.099487%, 27.799988%, 63.09967%)" fill-opacity="1">
<use xlink:href="#glyph-0-0" x="39.789105" y="19.544648"/>
<use xlink:href="#glyph-0-1" x="48.692481" y="19.544648"/>
<use xlink:href="#glyph-0-2" x="57.595856" y="19.544648"/>
<use xlink:href="#glyph-0-3" x="66.499231" y="19.544648"/>
<use xlink:href="#glyph-0-4" x="75.402606" y="19.544648"/>
<use xlink:href="#glyph-0-5" x="84.305982" y="19.544648"/>
<use xlink:href="#glyph-0-6" x="93.209357" y="19.544648"/>
<use xlink:href="#glyph-0-7" x="102.112732" y="19.544648"/>
<use xlink:href="#glyph-0-8" x="111.016108" y="19.544648"/>
</g>
<path fill-rule="nonzero" fill="rgb(89.019775%, 94.900513%, 99.215698%)" fill-opacity="1" d="M 145.375 40.894531 L 8.59375 40.894531 C 7.5 40.894531 6.613281 41.78125 6.613281 42.875 L 6.613281 58.621094 C 6.613281 59.714844 7.5 60.597656 8.59375 60.597656 L 145.375 60.597656 C 146.46875 60.597656 147.351562 59.714844 147.351562 58.621094 L 147.351562 42.875 C 147.351562 41.78125 146.46875 40.894531 145.375 40.894531 Z M 145.375 40.894531 "/>
<g clip-path="url(#clip-1)">
<path fill="none" stroke-width="0.79701" stroke-linecap="butt" stroke-linejoin="miter" stroke="rgb(8.233643%, 39.608765%, 75.292969%)" stroke-opacity="1" stroke-miterlimit="10" d="M 68.87531 -24.890013 L -68.874179 -24.890013 C -69.975671 -24.890013 -70.868667 -25.783009 -70.868667 -26.884501 L -70.868667 -42.742057 C -70.868667 -43.84355 -69.975671 -44.732611 -68.874179 -44.732611 L 68.87531 -44.732611 C 69.976802 -44.732611 70.865864 -43.84355 70.865864 -42.742057 L 70.865864 -26.884501 C 70.865864 -25.783009 69.976802 -24.890013 68.87531 -24.890013 Z M 68.87531 -24.890013 " transform="matrix(0.992971, 0, 0, -0.992971, 76.983813, 16.17947)"/>
</g>
<g fill="rgb(5.099487%, 27.799988%, 63.09967%)" fill-opacity="1">
<use xlink:href="#glyph-0-9" x="54.725375" y="54.082166"/>
<use xlink:href="#glyph-0-10" x="63.628751" y="54.082166"/>
<use xlink:href="#glyph-0-11" x="72.532126" y="54.082166"/>
<use xlink:href="#glyph-0-12" x="81.435501" y="54.082166"/>
<use xlink:href="#glyph-0-2" x="90.338876" y="54.082166"/>
</g>
<path fill-rule="nonzero" fill="rgb(89.019775%, 94.900513%, 99.215698%)" fill-opacity="1" d="M 145.375 75.464844 L 8.59375 75.464844 C 7.5 75.464844 6.613281 76.351562 6.613281 77.441406 L 6.613281 93.1875 C 6.613281 94.28125 7.5 95.167969 8.59375 95.167969 L 145.375 95.167969 C 146.46875 95.167969 147.351562 94.28125 147.351562 93.1875 L 147.351562 77.441406 C 147.351562 76.351562 146.46875 75.464844 145.375 75.464844 Z M 145.375 75.464844 "/>
<g clip-path="url(#clip-2)">
<path fill="none" stroke-width="0.79701" stroke-linecap="butt" stroke-linejoin="miter" stroke="rgb(8.233643%, 39.608765%, 75.292969%)" stroke-opacity="1" stroke-miterlimit="10" d="M 68.87531 -59.70504 L -68.874179 -59.70504 C -69.975671 -59.70504 -70.868667 -60.598036 -70.868667 -61.695594 L -70.868667 -77.55315 C -70.868667 -78.654643 -69.975671 -79.547638 -68.874179 -79.547638 L 68.87531 -79.547638 C 69.976802 -79.547638 70.865864 -78.654643 70.865864 -77.55315 L 70.865864 -61.695594 C 70.865864 -60.598036 69.976802 -59.70504 68.87531 -59.70504 Z M 68.87531 -59.70504 " transform="matrix(0.992971, 0, 0, -0.992971, 76.983813, 16.17947)"/>
</g>
<g fill="rgb(5.099487%, 27.799988%, 63.09967%)" fill-opacity="1">
<use xlink:href="#glyph-0-13" x="54.725375" y="88.690185"/>
<use xlink:href="#glyph-0-14" x="63.628751" y="88.690185"/>
<use xlink:href="#glyph-0-15" x="72.532126" y="88.690185"/>
<use xlink:href="#glyph-0-16" x="81.435501" y="88.690185"/>
<use xlink:href="#glyph-0-2" x="90.338876" y="88.690185"/>
</g>
<path fill-rule="nonzero" fill="rgb(89.019775%, 94.900513%, 99.215698%)" fill-opacity="1" d="M 145.375 110.03125 L 8.59375 110.03125 C 7.5 110.03125 6.613281 110.917969 6.613281 112.011719 L 6.613281 127.757812 C 6.613281 128.851562 7.5 129.734375 8.59375 129.734375 L 145.375 129.734375 C 146.46875 129.734375 147.351562 128.851562 147.351562 127.757812 L 147.351562 112.011719 C 147.351562 110.917969 146.46875 110.03125 145.375 110.03125 Z M 145.375 110.03125 "/>
<g clip-path="url(#clip-3)">
<path fill="none" stroke-width="0.79701" stroke-linecap="butt" stroke-linejoin="miter" stroke="rgb(8.233643%, 39.608765%, 75.292969%)" stroke-opacity="1" stroke-miterlimit="10" d="M 68.87531 -94.516133 L -68.874179 -94.516133 C -69.975671 -94.516133 -70.868667 -95.409128 -70.868667 -96.510621 L -70.868667 -112.368177 C -70.868667 -113.469669 -69.975671 -114.358731 -68.874179 -114.358731 L 68.87531 -114.358731 C 69.976802 -114.358731 70.865864 -113.469669 70.865864 -112.368177 L 70.865864 -96.510621 C 70.865864 -95.409128 69.976802 -94.516133 68.87531 -94.516133 Z M 68.87531 -94.516133 " transform="matrix(0.992971, 0, 0, -0.992971, 76.983813, 16.17947)"/>
</g>
<g fill="rgb(5.099487%, 27.799988%, 63.09967%)" fill-opacity="1">
<use xlink:href="#glyph-0-13" x="59.176864" y="123.245576"/>
<use xlink:href="#glyph-0-14" x="68.08024" y="123.245576"/>
<use xlink:href="#glyph-0-17" x="76.983615" y="123.245576"/>
<use xlink:href="#glyph-0-2" x="85.88699" y="123.245576"/>
</g>
<path fill="none" stroke-width="0.79701" stroke-linecap="butt" stroke-linejoin="miter" stroke="rgb(8.233643%, 39.608765%, 75.292969%)" stroke-opacity="1" stroke-miterlimit="10" d="M 0.000565497 -10.318843 L 0.000565497 -20.381762 " transform="matrix(0.992971, 0, 0, -0.992971, 76.983813, 16.17947)"/>
<path fill-rule="nonzero" fill="rgb(8.233643%, 39.608765%, 75.292969%)" fill-opacity="1" stroke-width="0.79701" stroke-linecap="butt" stroke-linejoin="miter" stroke="rgb(8.233643%, 39.608765%, 75.292969%)" stroke-opacity="1" stroke-miterlimit="10" d="M 5.441925 0.000565497 L 1.287726 1.570192 L 2.664591 0.000565497 L 1.287726 -1.569061 Z M 5.441925 0.000565497 " transform="matrix(0, 0.992971, 0.992971, 0, 76.983813, 33.971326)"/>
<path fill="none" stroke-width="0.79701" stroke-linecap="butt" stroke-linejoin="miter" stroke="rgb(8.233643%, 39.608765%, 75.292969%)" stroke-opacity="1" stroke-miterlimit="10" d="M 0.000565497 -45.133869 L 0.000565497 -55.196789 " transform="matrix(0.992971, 0, 0, -0.992971, 76.983813, 16.17947)"/>
<path fill-rule="nonzero" fill="rgb(8.233643%, 39.608765%, 75.292969%)" fill-opacity="1" stroke-width="0.79701" stroke-linecap="butt" stroke-linejoin="miter" stroke="rgb(8.233643%, 39.608765%, 75.292969%)" stroke-opacity="1" stroke-miterlimit="10" d="M 5.439918 0.000565497 L 1.285719 1.570192 L 2.662584 0.000565497 L 1.285719 -1.569061 Z M 5.439918 0.000565497 " transform="matrix(0, 0.992971, 0.992971, 0, 76.983813, 68.539725)"/>
<path fill="none" stroke-width="0.79701" stroke-linecap="butt" stroke-linejoin="miter" stroke="rgb(8.233643%, 39.608765%, 75.292969%)" stroke-opacity="1" stroke-miterlimit="10" d="M 0.000565497 -79.944962 L 0.000565497 -90.007882 " transform="matrix(0.992971, 0, 0, -0.992971, 76.983813, 16.17947)"/>
<path fill-rule="nonzero" fill="rgb(8.233643%, 39.608765%, 75.292969%)" fill-opacity="1" stroke-width="0.79701" stroke-linecap="butt" stroke-linejoin="miter" stroke="rgb(8.233643%, 39.608765%, 75.292969%)" stroke-opacity="1" stroke-miterlimit="10" d="M 5.441855 0.000565497 L 1.287655 1.570192 L 2.664521 0.000565497 L 1.287655 -1.569061 Z M 5.441855 0.000565497 " transform="matrix(0, 0.992971, 0.992971, 0, 76.983813, 103.108114)"/>
</svg>
